<?xml version="1.0" encoding="UTF-8"?><svg xmlns="http://www.w3.org/2000/svg" xmlns:xlink="http://www.w3.org/1999/xlink" viewBox="0 0 79.77 78.96"><defs><style>.cls-1{fill:url(#linear-gradient);}.cls-1,.cls-2,.cls-3,.cls-4,.cls-5,.cls-6,.cls-7,.cls-8,.cls-9,.cls-10,.cls-11,.cls-12{stroke-width:0px;}.cls-2{fill:#e68805;}.cls-2,.cls-13{mix-blend-mode:multiply;}.cls-3{fill:url(#linear-gradient-6);}.cls-14{isolation:isolate;}.cls-4{fill:url(#linear-gradient-3);}.cls-4,.cls-7,.cls-8,.cls-15,.cls-16,.cls-11,.cls-17,.cls-12{mix-blend-mode:overlay;}.cls-4,.cls-16,.cls-12{opacity:.7;}.cls-5{fill:url(#linear-gradient-5);}.cls-6{fill:url(#linear-gradient-2);}.cls-7{fill:url(#radial-gradient);}.cls-7,.cls-17{opacity:.5;}.cls-8{fill:url(#linear-gradient-8);}.cls-8,.cls-15,.cls-11{opacity:.4;}.cls-9{fill:#cf4505;}.cls-10{fill:#452b08;}.cls-11{fill:url(#linear-gradient-7);}.cls-12{fill:url(#linear-gradient-4);}</style><linearGradient id="linear-gradient" x1="7.98" y1="81.33" x2="85.32" y2="19.93" gradientUnits="userSpaceOnUse"><stop offset="0" stop-color="#d13f05"/><stop offset=".29" stop-color="#f67205"/><stop offset=".37" stop-color="#f67605"/><stop offset=".45" stop-color="#f68405"/><stop offset=".54" stop-color="#f69b05"/><stop offset=".56" stop-color="#f6a205"/><stop offset=".6" stop-color="#f69005"/><stop offset=".64" stop-color="#f67f05"/><stop offset=".69" stop-color="#f67505"/><stop offset=".76" stop-color="#f67205"/><stop offset="1" stop-color="#d13f05"/></linearGradient><linearGradient id="linear-gradient-2" x1="57.86" y1="46.33" x2="-5.24" y2="14.78" gradientUnits="userSpaceOnUse"><stop offset="0" stop-color="#ffaf02"/><stop offset="1" stop-color="#f56d05"/></linearGradient><linearGradient id="linear-gradient-3" x1="22.47" y1="69.14" x2="72.93" y2="17.57" gradientUnits="userSpaceOnUse"><stop offset="0" stop-color="#fff" stop-opacity="0"/><stop offset=".48" stop-color="#fff"/><stop offset="1" stop-color="#fff" stop-opacity="0"/></linearGradient><linearGradient id="linear-gradient-4" x1="24.02" y1="60.75" x2="46.98" y2="11.11" xlink:href="#linear-gradient-3"/><linearGradient id="linear-gradient-5" x1="65.04" y1="26.83" x2="14.04" y2="42.21" gradientUnits="userSpaceOnUse"><stop offset="0" stop-color="#cf4505"/><stop offset="1" stop-color="#e45905"/></linearGradient><linearGradient id="linear-gradient-6" x1="59.96" y1="49.27" x2="4.43" y2="21.47" xlink:href="#linear-gradient-2"/><linearGradient id="linear-gradient-7" x1="27.83" y1="25.65" x2="49.37" y2="50.92" gradientUnits="userSpaceOnUse"><stop offset="0" stop-color="#fff"/><stop offset="1" stop-color="#fff" stop-opacity="0"/></linearGradient><linearGradient id="linear-gradient-8" x1="17.33" y1="13.88" x2="29.11" y2="25.84" xlink:href="#linear-gradient-7"/><radialGradient id="radial-gradient" cx="-42573.24" cy="3707.87" fx="-42573.24" fy="3707.87" r="21.74" gradientTransform="translate(4536.91 1855.42) rotate(45.47) scale(.1 .52) skewX(.08)" gradientUnits="userSpaceOnUse"><stop offset="0" stop-color="#fff"/><stop offset=".09" stop-color="rgba(255,255,255,.96)" stop-opacity=".96"/><stop offset=".24" stop-color="rgba(255,255,255,.85)" stop-opacity=".85"/><stop offset=".43" stop-color="rgba(255,255,255,.66)" stop-opacity=".66"/><stop offset=".66" stop-color="rgba(255,255,255,.41)" stop-opacity=".41"/><stop offset=".93" stop-color="rgba(255,255,255,.09)" stop-opacity=".09"/><stop offset="1" stop-color="#fff" stop-opacity="0"/></radialGradient></defs><g class="cls-14"><g id="Camada_2"><g id="Camada_1-2"><path class="cls-10" d="M35.2,77.46c-.57,0-1.14-.01-1.71-.04-7.41-.38-13.71-3.18-18.21-8.1l-7.26-7.93,2.21-2.03c3.96,4.33,9.55,6.79,16.15,7.13.52.03,1.04.04,1.56.04,16.52,0,33.47-13.1,38.59-29.82,2.97-9.7,1.41-18.83-4.28-25.04l2.21-2.03,7.26,7.93c6.42,7.02,8.22,17.2,4.94,27.94-5.48,17.91-23.69,31.94-41.46,31.94h0Z"/><path class="cls-10" d="M63.36,10.66c2.42,2.64,4.84,5.29,7.26,7.93,5.79,6.32,7.83,15.95,4.61,26.49-5.32,17.38-22.99,30.88-40.02,30.88-.55,0-1.09-.01-1.63-.04-7.22-.37-13.12-3.18-17.18-7.62l-7.26-7.93c4.06,4.43,9.96,7.25,17.18,7.62.54.03,1.09.04,1.63.04,17.03,0,34.71-13.5,40.02-30.88,3.23-10.54,1.18-20.17-4.61-26.49M65.57,8.64l-2.21,2.03-2.21,2.03c5.32,5.81,6.76,14.41,3.95,23.59-4.93,16.13-21.25,28.76-37.16,28.76-.49,0-.99-.01-1.48-.04-6.21-.32-11.44-2.62-15.13-6.65l-2.21,2.03-2.21,2.03,7.26,7.93c4.78,5.22,11.43,8.19,19.24,8.59.59.03,1.19.05,1.79.05,18.39,0,37.23-14.5,42.89-33,3.45-11.26,1.53-21.98-5.26-29.39l-7.26-7.93h0Z"/><g class="cls-13"><path class="cls-10" d="M35.2,77.46c-.57,0-1.14-.01-1.71-.04-7.16-.37-13.31-3.02-17.79-7.67l2.12-2.12c3.89,3.73,9.15,5.86,15.21,6.17.52.03,1.04.04,1.56.04,16.52,0,33.48-13.1,38.59-29.82,2.97-9.7,1.41-18.83-4.28-25.04l-5.95-6.5-.17-.2c-.16-.2-.33-.4-.5-.58h-.01s2.2-2.06,2.2-2.06l-1.04,1,1.06-.97,7.24,7.9c6.42,7.02,8.22,17.2,4.94,27.94-5.48,17.91-23.69,31.94-41.46,31.94,0,0,0,0,0,0Z"/><path class="cls-10" d="M63.36,10.66l.02.02s-.02-.02-.02-.02M63.38,10.69c2.41,2.64,4.83,5.27,7.24,7.9,5.79,6.32,7.83,15.95,4.61,26.49-5.32,17.38-22.99,30.88-40.02,30.88-.55,0-1.09-.01-1.63-.04-7-.36-12.75-3.02-16.79-7.21,4,3.83,9.53,6.25,16.17,6.59.54.03,1.09.04,1.63.04,17.03,0,34.71-13.5,40.02-30.88,3.22-10.54,1.18-20.17-4.61-26.49-1.98-2.16-3.97-4.33-5.95-6.5-.22-.26-.44-.53-.67-.79M65.59,8.66l-.43.39-1.81,1.61-2.2,2.04,2.64-2.4-2.64,2.41c.16.18.31.36.46.54l.11.14.05.06.05.05,5.95,6.5c5.32,5.81,6.76,14.41,3.95,23.59-4.93,16.13-21.25,28.76-37.16,28.76-.49,0-.99-.01-1.48-.04-5.69-.29-10.62-2.29-14.25-5.76l-4.23,4.25c4.75,4.93,11.25,7.74,18.8,8.12.59.03,1.19.05,1.79.05,18.39,0,37.23-14.5,42.89-33,3.45-11.26,1.53-21.98-5.26-29.39l-.24-.26-7-7.64h0Z"/></g><path class="cls-10" d="M27.94,69.53c-.57,0-1.14-.01-1.71-.04-8.55-.44-15.7-4.17-20.14-10.51C1.3,52.15.21,42.84,3.08,33.44,8.56,15.53,26.77,1.5,44.54,1.5c.57,0,1.14.01,1.71.04,8.55.44,15.7,4.17,20.14,10.51,4.79,6.83,5.88,16.14,3.01,25.54-5.48,17.91-23.69,31.94-41.46,31.94Z"/><path class="cls-10" d="M44.54,3c.55,0,1.09.01,1.63.04,17.52.9,27.28,16.17,21.79,34.11-5.32,17.38-22.99,30.88-40.02,30.88-.55,0-1.09-.01-1.63-.04-17.52-.9-27.28-16.17-21.79-34.11C9.83,16.5,27.51,3,44.54,3M44.54,0h0C26.15,0,7.31,14.5,1.65,33.01c-3.01,9.84-1.84,19.63,3.21,26.84,4.71,6.72,12.27,10.68,21.29,11.14.59.03,1.19.05,1.79.05,18.39,0,37.23-14.5,42.89-33.01,3.01-9.85,1.84-19.63-3.21-26.84C62.91,4.47,55.35.51,46.33.05c-.59-.03-1.19-.05-1.78-.05h0Z"/><g class="cls-16"><path class="cls-10" d="M28.32,69.96c-.57,0-1.14-.01-1.71-.04-7.26-.37-13.48-3.09-17.97-7.84l-.45-.5,2.22-2.02c3.95,4.21,9.48,6.61,15.97,6.94.52.03,1.04.04,1.56.04,16.52,0,33.47-13.1,38.59-29.82,2.93-9.59,1.43-18.65-4.13-24.86l2.21-2.03c6.52,6.92,8.45,17.45,5.17,28.19-5.48,17.91-23.69,31.94-41.46,31.94h0Z"/><path class="cls-10" d="M63.52,10.85c5.96,6.32,8.09,16.05,4.83,26.72-5.32,17.38-22.99,30.88-40.02,30.88-.55,0-1.09-.01-1.63-.04-7.09-.36-12.9-3.08-16.95-7.37l-.16-.18c-.09-.09-.17-.19-.25-.28,4.05,4.31,9.88,7.05,16.99,7.42.54.03,1.09.04,1.63.04,17.03,0,34.71-13.5,40.02-30.88,3.19-10.44,1.22-19.97-4.45-26.3M65.7,8.79l-4.42,4.06c5.2,5.81,6.59,14.35,3.81,23.42-4.93,16.13-21.25,28.76-37.16,28.76-.49,0-.99-.01-1.48-.04-6.1-.31-11.27-2.55-14.95-6.47l-4.43,4.04.07.08c.07.08.14.17.22.25l.15.16.02.02.02.02c4.76,5.04,11.32,7.92,18.98,8.31.59.03,1.19.05,1.79.05,18.39,0,37.23-14.5,42.89-33,3.44-11.26,1.38-22.35-5.51-29.66h0Z"/></g><g class="cls-16"><path class="cls-10" d="M29.73,60.38c-.42,0-.83-.01-1.25-.03-6.27-.32-11.53-3.07-14.8-7.73-3.51-5.01-4.32-11.84-2.22-18.71,3.99-13.04,17.25-23.25,30.19-23.25.42,0,.83.01,1.25.03,6.27.32,11.53,3.07,14.79,7.73,3.51,5.01,4.32,11.84,2.22,18.71-3.99,13.04-17.25,23.25-30.19,23.25Z"/><path class="cls-10" d="M41.65,12.15c.39,0,.78.01,1.17.03,12.59.65,19.6,11.62,15.66,24.51-3.82,12.48-16.52,22.19-28.76,22.19-.39,0-.78,0-1.17-.03-12.59-.65-19.6-11.62-15.66-24.51,3.82-12.49,16.52-22.19,28.76-22.19M41.66,9.15h0c-13.56,0-27.46,10.68-31.63,24.31-2.24,7.32-1.36,14.62,2.43,20.01,3.54,5.05,9.2,8.02,15.95,8.36.44.02.88.03,1.33.03,13.56,0,27.45-10.68,31.62-24.31,2.24-7.32,1.36-14.62-2.42-20.01-3.54-5.05-9.2-8.02-15.95-8.36-.44-.02-.88-.03-1.33-.03h0Z"/></g><path class="cls-10" d="M30.28,60.38c-.42,0-.83-.01-1.25-.03-6.28-.32-11.53-3.07-14.8-7.73-3.51-5.01-4.32-11.84-2.22-18.71,3.99-13.04,17.25-23.25,30.19-23.25.42,0,.83.01,1.25.03,6.27.32,11.53,3.07,14.79,7.73,3.51,5.01,4.32,11.84,2.22,18.71-3.99,13.04-17.25,23.25-30.19,23.25Z"/><path class="cls-10" d="M42.2,12.15c.39,0,.78.01,1.17.03,12.59.65,19.6,11.62,15.66,24.51-3.82,12.48-16.52,22.19-28.76,22.19-.39,0-.78,0-1.17-.03-12.59-.65-19.6-11.62-15.66-24.51,3.82-12.49,16.52-22.19,28.76-22.19M42.21,9.15h0c-13.56,0-27.45,10.68-31.62,24.31-2.24,7.32-1.36,14.62,2.42,20.01,3.54,5.05,9.2,8.02,15.95,8.37.44.02.88.03,1.33.03,13.56,0,27.45-10.68,31.62-24.31,2.24-7.32,1.36-14.62-2.43-20.01-3.54-5.05-9.2-8.02-15.94-8.36-.44-.02-.88-.03-1.33-.03h0Z"/><path class="cls-10" d="M22.47,58.99c-9.55-3.67-13.85-13.99-10.46-25.08,3.99-13.04,17.25-23.25,30.19-23.25.42,0,.83.01,1.25.03,3.54.18,6.74,1.13,9.51,2.8l-1.31,2.68c-1.74-.67-3.64-1.06-5.64-1.17-.37-.02-.73-.03-1.1-.03-11.7,0-23.7,9.28-27.32,21.13-2.58,8.43-.15,16.36,6.19,20.19l-1.32,2.68Z"/><path class="cls-10" d="M42.2,12.15c.39,0,.78.01,1.17.03,3.37.17,6.34,1.09,8.81,2.59-1.84-.71-3.88-1.15-6.1-1.26-.39-.02-.78-.03-1.17-.03-12.24,0-24.93,9.7-28.75,22.19-2.89,9.43.1,17.83,6.85,21.92-8.62-3.31-12.81-12.63-9.56-23.24,3.82-12.49,16.52-22.19,28.76-22.19M42.2,9.15h0c-13.56,0-27.45,10.68-31.63,24.31-3.63,11.88,1.03,22.95,11.35,26.92l2.63-5.37c-5.82-3.52-7.94-10.6-5.53-18.47,3.44-11.25,14.81-20.06,25.89-20.07.34,0,.68,0,1.02.03,1.84.09,3.58.45,5.18,1.07l2.63-5.37c-2.99-1.81-6.42-2.82-10.21-3.02-.44-.02-.89-.03-1.33-.03h0Z"/><path class="cls-10" d="M39.68,51.14c-.45-.02-.88-.11-1.29-.28l-5.5-2.22-6.72,1.82c-.4.11-.8.16-1.17.16h-.13c-.98-.04-1.81-.45-2.34-1.18-.58-.8-.73-1.87-.41-3.03l1.84-6.63-2.23-5.44c-.41-1-.37-2.08.1-3.06.54-1.11,1.6-1.95,2.91-2.32l6.83-1.89,5.42-5.33c.9-.89,1.97-1.38,3-1.38h.11c1.24.05,2.28.79,2.78,1.99l2.23,5.32,5.38,2.21c1.04.43,1.75,1.26,1.95,2.28.24,1.21-.25,2.52-1.35,3.6l-5.4,5.35-1.91,6.75c-.55,1.95-2.16,3.26-3.99,3.26h-.13Z"/><path class="cls-10" d="M40,21.88s.04,0,.06,0c.63.02,1.16.38,1.45,1.07l2.46,5.89,5.95,2.45c1.39.58,1.44,2.12.12,3.43l-5.67,5.63-2.02,7.12c-.38,1.32-1.43,2.16-2.54,2.16-.03,0-.05,0-.08,0-.26,0-.52-.06-.78-.17l-5.97-2.41-7.2,1.95c-.28.08-.54.11-.77.11-.03,0-.05,0-.08,0-1.14-.04-1.74-.95-1.36-2.3l1.98-7.12-2.43-5.91c-.57-1.38.35-2.89,2.03-3.36l7.2-1.99,5.7-5.61c.64-.63,1.34-.95,1.95-.95M40,18.88c-1.43,0-2.87.64-4.06,1.81l-5.15,5.06-6.45,1.78c-1.73.48-3.13,1.61-3.86,3.1-.67,1.36-.72,2.89-.15,4.28l2.04,4.96-1.71,6.13c-.45,1.61-.22,3.14.65,4.32.8,1.09,2.07,1.74,3.5,1.79.06,0,.12,0,.18,0,.5,0,1.03-.07,1.56-.22l6.23-1.69,5.04,2.03c.57.23,1.17.36,1.79.38.06,0,.12,0,.18,0,2.51,0,4.69-1.75,5.43-4.34l1.81-6.37,5.12-5.07c1.46-1.44,2.1-3.25,1.76-4.96-.3-1.52-1.34-2.75-2.84-3.37l-4.81-1.98-1.98-4.75c-.74-1.76-2.28-2.84-4.12-2.91-.05,0-.11,0-.17,0h0Z"/><g class="cls-15"><path class="cls-10" d="M22.87,69.14c-7.41-1.19-13.56-5.09-17.34-10.98l-.72-1.12L63.42,8.52l.96,1.04c4.71,5.1,7.03,12.15,6.54,19.85l-.04.65-47.33,39.19-.67-.11Z"/><path class="cls-10" d="M63.28,10.58c4.36,4.72,6.62,11.3,6.14,18.73l-46.31,38.34c-7.22-1.16-12.86-4.92-16.31-10.31L63.28,10.58M63.56,6.46l-2.19,1.81L4.89,55.03l-2.05,1.69,1.43,2.24c4.01,6.26,10.53,10.4,18.36,11.65l1.34.22,1.05-.87,46.31-38.34,1-.83.08-1.29c.53-8.12-1.94-15.56-6.93-20.96l-1.93-2.09h0Z"/></g><g class="cls-15"><path class="cls-10" d="M1.51,44.42c-.09-3.58.44-7.28,1.57-10.98.42-1.39.96-2.84,1.6-4.3l.14-.33L36.76,2.38l.36-.08c2.52-.53,5.02-.8,7.45-.8.56,0,1.12.01,1.68.04,2.05.11,4.08.42,6.02.92l2.84.74L1.59,47.51l-.08-3.09Z"/><path class="cls-10" d="M44.57,3c.54,0,1.07.01,1.61.04,2.01.1,3.92.41,5.72.87L3.01,44.39c-.08-3.33.39-6.86,1.51-10.5.43-1.41.95-2.79,1.54-4.14L37.43,3.77c2.37-.5,4.76-.77,7.14-.77M44.57,0c-2.53,0-5.14.28-7.76.83l-.72.15-.57.47L4.14,27.43l-.55.46-.29.66c-.66,1.51-1.21,3.02-1.66,4.46C.47,36.86-.08,40.72.01,44.46l.15,6.18,4.76-3.94L53.81,6.22l4.52-3.74-5.68-1.47c-2.04-.53-4.17-.85-6.32-.96-.58-.03-1.17-.05-1.76-.05h0Z"/></g><g class="cls-17"><path class="cls-10" d="M48.62,65.95c-.78,0-1.27-.33-1.55-.61-1.35-1.37-.13-3.58,1.07-5.36,1.28-1.88,3.21-4.13,5.43-6.32,1.18-1.16,7.2-6.93,10.23-6.93.78,0,1.27.33,1.55.61,1.35,1.37.14,3.58-1.07,5.36-1.28,1.88-3.21,4.13-5.43,6.32-1.18,1.16-7.19,6.93-10.23,6.93Z"/><path class="cls-10" d="M63.81,48.23c.21,0,.37.05.48.16.88.89-2.03,5.17-6.49,9.56-3.91,3.85-7.71,6.5-9.18,6.5-.21,0-.37-.05-.48-.16-.88-.89,2.03-5.17,6.49-9.56,3.91-3.85,7.71-6.5,9.18-6.5M63.81,45.23h0c-3.44,0-9.04,5.15-11.29,7.36-2.29,2.26-4.29,4.58-5.62,6.54-.9,1.32-3.28,4.84-.9,7.26.67.68,1.6,1.06,2.62,1.06,3.44,0,9.04-5.15,11.28-7.36,2.29-2.26,4.29-4.58,5.62-6.54.9-1.32,3.28-4.84.9-7.26-.67-.68-1.6-1.06-2.61-1.06h0Z"/></g><path class="cls-1" d="M63.36,10.66c2.42,2.64,4.84,5.29,7.26,7.93,5.79,6.32,7.83,15.95,4.61,26.49-5.49,17.94-24.14,31.74-41.66,30.84-7.22-.37-13.12-3.18-17.18-7.62l-7.26-7.93c4.06,4.43,9.96,7.25,17.18,7.62,17.52.9,36.17-12.91,41.66-30.84,3.23-10.54,1.18-20.17-4.61-26.49Z"/><path class="cls-2" d="M70.62,18.59c-2.42-2.64-4.84-5.29-7.26-7.93.24.26.46.54.69.81,1.98,2.17,3.97,4.33,5.95,6.5,5.79,6.32,7.83,15.95,4.61,26.49-5.49,17.94-24.14,31.74-41.66,30.84-6.64-.34-12.16-2.75-16.17-6.59,4.05,4.2,9.79,6.85,16.79,7.21,17.52.9,36.17-12.91,41.66-30.84,3.23-10.54,1.18-20.17-4.61-26.49Z"/><path class="cls-6" d="M46.17,3.04c17.52.9,27.28,16.17,21.79,34.11-5.49,17.94-24.13,31.74-41.66,30.84-17.52-.9-27.28-16.17-21.79-34.11C10,15.95,28.65,2.14,46.17,3.04Z"/><path class="cls-4" d="M68.35,37.57c3.26-10.67,1.13-20.4-4.83-26.72,5.66,6.33,7.64,15.86,4.45,26.3-5.49,17.94-24.13,31.74-41.66,30.84-7.11-.37-12.93-3.1-16.99-7.42.08.09.16.19.25.28l.16.18c4.05,4.29,9.87,7.01,16.95,7.37,17.52.9,36.17-12.9,41.66-30.84Z"/><path class="cls-12" d="M42.83,12.18c12.59.65,19.6,11.62,15.66,24.51-3.94,12.88-17.34,22.81-29.93,22.16-12.59-.65-19.6-11.62-15.66-24.51,3.94-12.89,17.34-22.81,29.93-22.16Z"/><path class="cls-5" d="M43.38,12.18c12.59.65,19.6,11.62,15.66,24.51-3.94,12.88-17.34,22.81-29.93,22.16-12.59-.65-19.6-11.62-15.66-24.51,3.94-12.89,17.34-22.81,29.93-22.16Z"/><path class="cls-9" d="M16.16,35.67c3.94-12.89,17.34-22.81,29.93-22.16,2.22.11,4.25.55,6.1,1.26-2.47-1.49-5.44-2.42-8.81-2.59-12.59-.65-25.99,9.27-29.93,22.16-3.25,10.62.94,19.93,9.56,23.24-6.74-4.08-9.73-12.48-6.85-21.92Z"/><path class="cls-3" d="M49.92,31.29l-5.95-2.45-2.46-5.89c-.29-.69-.82-1.05-1.45-1.07-.63-.02-1.35.29-2.02.95l-5.7,5.61-7.2,1.99c-1.68.47-2.59,1.97-2.03,3.36l2.43,5.91-1.98,7.12c-.38,1.35.22,2.26,1.36,2.3.26,0,.54-.03.85-.11l7.2-1.95,5.97,2.41c.25.1.52.16.78.17,1.14.04,2.23-.81,2.62-2.16l2.02-7.12,5.67-5.63c1.33-1.32,1.27-2.85-.12-3.43Z"/><path class="cls-11" d="M69.42,29.32l-46.31,38.34c-7.22-1.16-12.86-4.92-16.31-10.31L63.28,10.58c4.36,4.72,6.62,11.3,6.14,18.73Z"/><path class="cls-8" d="M46.17,3.04c-2.91-.15-5.84.11-8.75.72L6.06,29.74c-.59,1.35-1.11,2.73-1.54,4.14-1.11,3.65-1.59,7.18-1.51,10.5L51.9,3.91c-1.8-.47-3.71-.77-5.72-.87Z"/><path class="cls-7" d="M57.8,57.95c-4.46,4.39-8.78,7.23-9.66,6.34-.88-.89,2.03-5.17,6.49-9.56,4.46-4.39,8.78-7.23,9.66-6.34.88.89-2.03,5.17-6.49,9.56Z"/></g></g></g></svg>