<?xml version="1.0" encoding="UTF-8"?><svg id="Camada_2" xmlns="http://www.w3.org/2000/svg" viewBox="0 0 69.93 66.93"><defs><style>.cls-1{opacity:.5;}.cls-1,.cls-2,.cls-3,.cls-4,.cls-5,.cls-6{stroke-width:0px;}.cls-1,.cls-3{fill:#231f20;}.cls-2{fill:#feda9e;}.cls-4{fill:#fca20e;}.cls-5{fill:#be1e2d;}.cls-6{fill:#fed99a;}</style></defs><g id="Camada_1-2"><circle class="cls-4" cx="31.66" cy="31.66" r="30.86" transform="translate(-6.24 55.49) rotate(-77.16)"/><path class="cls-1" d="M69.93,36.07c0,17.04-13.81,30.86-30.86,30.86-7.31,0-14.02-2.54-19.31-6.78,3.66,1.53,7.68,2.37,11.89,2.37,17.04,0,30.86-13.81,30.86-30.86,0-9.73-4.51-18.42-11.55-24.07,11.14,4.65,18.97,15.66,18.97,28.48Z"/><path class="cls-1" d="M63.2,31.02c0,17.04-13.81,30.86-30.86,30.86-7.31,0-14.02-2.54-19.31-6.78,3.66,1.53,7.68,2.37,11.89,2.37,17.04,0,30.86-13.81,30.86-30.86,0-9.73-4.51-18.42-11.55-24.07,11.14,4.65,18.97,15.66,18.97,28.48Z"/><path class="cls-2" d="M11.17,16.05s7.22-11.26,12.63-10.45c5.41.8,2.11-1.07,5.41.8"/><path class="cls-6" d="M11.17,45.68s-5.77-10.6-3.61-15.4"/><path class="cls-3" d="M31.66,63.32C14.2,63.32,0,49.12,0,31.66S14.2,0,31.66,0s31.66,14.2,31.66,31.66-14.2,31.66-31.66,31.66ZM31.66,1.6C15.09,1.6,1.6,15.09,1.6,31.66s13.48,30.05,30.05,30.05,30.06-13.48,30.06-30.05S48.23,1.6,31.66,1.6Z"/><polygon class="cls-5" points="23.27 17.74 25.03 21.31 28.97 21.89 26.12 24.67 26.79 28.6 23.27 26.74 19.74 28.6 20.41 24.67 17.56 21.89 21.5 21.31 23.27 17.74"/><polygon class="cls-5" points="40.05 17.74 41.82 21.31 45.76 21.89 42.91 24.67 43.58 28.6 40.05 26.74 36.52 28.6 37.2 24.67 34.34 21.89 38.29 21.31 40.05 17.74"/><polygon class="cls-5" points="40.05 31.96 41.82 35.54 45.76 36.11 42.91 38.89 43.58 42.82 40.05 40.97 36.52 42.82 37.2 38.89 34.34 36.11 38.29 35.54 40.05 31.96"/><polygon class="cls-5" points="23.27 31.96 25.03 35.54 28.97 36.11 26.12 38.89 26.79 42.82 23.27 40.97 19.74 42.82 20.41 38.89 17.56 36.11 21.5 35.54 23.27 31.96"/></g></svg>