<?xml version="1.0" encoding="UTF-8"?><svg id="Camada_2" xmlns="http://www.w3.org/2000/svg" viewBox="0 0 76.26 80.06"><defs><style>.cls-1{fill:#fbfbfb;}.cls-1,.cls-2,.cls-3,.cls-4{stroke-width:0px;}.cls-2{fill:#452b08;}.cls-3{fill:#b35b01;}.cls-4{fill:#faa801;}</style></defs><g id="Camada_1-2"><path class="cls-2" d="M75.2,41.43c-16.65,12.39-27.14,33.83-31.52,37.16-4.39,3.32-10.09,0-10.09,0,0,0-30.54-33.53-32.66-37.46-1.13-2.12-1.04-3.96-.73-5.22.28-1.08.73-1.73.73-1.73l21.14-12.08S27.82,1.26,36.89.06c9.05-1.22,12.68,17.21,17.82,22.05,5.13,4.83,20.49,10.87,20.49,10.87.17.29.32.59.45.89,1.59,3.68-.45,7.56-.45,7.56Z"/><path class="cls-4" d="M70.15,41.24c-14.38,10.7-23.44,29.22-27.22,32.09-3.79,2.87-8.71,0-8.71,0,0,0-26.38-28.96-28.21-32.35-.98-1.83-.9-3.42-.63-4.51.24-.93.63-1.49.63-1.49l18.26-10.43s4.96-18,12.79-19.04c7.82-1.05,10.95,14.86,15.39,19.04,4.43,4.17,17.7,9.39,17.7,9.39.15.25.28.51.39.77,1.37,3.18-.39,6.53-.39,6.53Z"/><path class="cls-3" d="M70.15,41.24c-14.38,10.7-23.44,29.22-27.22,32.09-3.79,2.87-8.71,0-8.71,0,0,0-26.38-28.96-28.21-32.35-.98-1.83-.9-3.42-.63-4.51,3.38,1.78,8.46,4.66,12.46,7.83,6.58,5.21,20.41,24.52,20.41,24.52,0,0,.78,4.69,6.78-7.57,4.64-9.47,17.93-21.13,25.51-26.54,1.37,3.18-.39,6.53-.39,6.53Z"/><polygon class="cls-3" points="28.64 53.95 32.55 41.03 17.29 34.97 33.53 34.97 38.03 17.36 41.55 34.77 57.01 35.65 41.94 40.84 45.47 55.51 37.15 47.49 28.64 53.95"/><path class="cls-1" d="M10.63,33.83s10.78-.99,15.31-5.97,7.91-16.98,11.04-17.51,7.93,7.14,9.97,12.05,8.04,10.91,16.65,14.04h3.8l-9.49-6.26s-5.95-1.57-10.96-11.87-9.45-12.65-11.27-10.3-10.57,16.83-10.57,16.83c0,0-7.43,7.43-14.48,9Z"/></g></svg>