<?xml version="1.0" encoding="UTF-8"?><svg id="Camada_2" xmlns="http://www.w3.org/2000/svg" xmlns:xlink="http://www.w3.org/1999/xlink" viewBox="0 0 222.69 239.74"><defs><style>.cls-1{fill:#973b00;}.cls-1,.cls-2,.cls-3,.cls-4,.cls-5,.cls-6,.cls-7,.cls-8,.cls-9,.cls-10,.cls-11,.cls-12,.cls-13,.cls-14,.cls-15,.cls-16,.cls-17,.cls-18,.cls-19,.cls-20,.cls-21,.cls-22,.cls-23,.cls-24{stroke-width:0px;}.cls-2{fill:#f9b361;}.cls-3{fill:#ffc27c;}.cls-4{fill:#da8130;}.cls-5{fill:#914100;}.cls-25{stroke-width:.97px;}.cls-25,.cls-26,.cls-27{stroke:#000;}.cls-25,.cls-26,.cls-27,.cls-28{stroke-miterlimit:10;}.cls-25,.cls-27{fill:#002f1f;}.cls-6{fill:#000;}.cls-7{fill:#fff9f5;}.cls-8{fill:#fa9500;}.cls-9{fill:#b36100;}.cls-10{fill:#9a1f00;}.cls-11,.cls-28{fill:none;}.cls-26{stroke-width:3px;}.cls-26,.cls-18{fill:#ffbe00;}.cls-27{stroke-width:.88px;}.cls-12{fill:#760c00;}.cls-13{fill:#004080;}.cls-14{fill:#f8f1c6;}.cls-29{clip-path:url(#clippath);}.cls-15{fill:#003608;}.cls-16{fill:#db8031;}.cls-17{fill:#ffbc75;}.cls-28{stroke:#003608;stroke-width:8px;}.cls-19{fill:#000004;}.cls-20{fill:#0a7a31;}.cls-21{fill:#004e1f;}.cls-22{fill:#f9e80b;}.cls-23{fill:#ff9400;}.cls-24{fill:#fa6f00;}</style><clipPath id="clippath"><path class="cls-11" d="M210.34,131.38c0,53.21-44.32,96.35-99,96.35S12.34,184.59,12.34,131.38,59.12,0,113.8,0s96.55,78.17,96.55,131.38Z"/></clipPath></defs><g id="Camada_1-2"><path class="cls-20" d="M111.34,237.74C51.05,237.74,2,190.03,2,131.38S51.05,25.02,111.34,25.02s109.34,47.71,109.34,106.36-49.05,106.36-109.34,106.36Z"/><path class="cls-15" d="M111.34,27.02c59.19,0,107.34,46.82,107.34,104.36s-48.15,104.36-107.34,104.36S4,188.93,4,131.38,52.15,27.02,111.34,27.02M111.34,23.02C49.85,23.02,0,71.54,0,131.38s49.85,108.36,111.34,108.36,111.34-48.52,111.34-108.36S172.84,23.02,111.34,23.02h0Z"/><path class="cls-21" d="M111.34,225.73c-53.49,0-97-42.32-97-94.35S57.86,37.03,111.34,37.03s97,42.32,97,94.35-43.51,94.35-97,94.35Z"/><path class="cls-15" d="M111.34,39.03c52.38,0,95,41.43,95,92.35s-42.62,92.35-95,92.35S16.34,182.3,16.34,131.38,58.96,39.03,111.34,39.03M111.34,35.03c-54.68,0-99,43.14-99,96.35s44.32,96.35,99,96.35,99-43.14,99-96.35-44.32-96.35-99-96.35h0Z"/><g class="cls-29"><path class="cls-8" d="M55.02,214.45l-.45-1.56-1.43-5.08-.49-1.68.64-.63c1.02-.99,10.06-9.75,13.81-11.62,1.28-.64,2.98-.97,5.03-.97,3.29,0,6.46.83,6.59.86l.8.21,9.1,28.79-13.28,4.63-20.32-12.96Z"/><path class="cls-6" d="M72.14,194.42c3.13,0,6.21.81,6.21.81l8.41,26.61-11.22,3.91-19.23-12.26-.29-1.01-1.43-5.07-.24-.83s9.78-9.53,13.43-11.35c1.22-.61,2.8-.81,4.36-.81M72.14,191.42h0c-2.29,0-4.21.38-5.71,1.13-3.87,1.93-12.49,10.24-14.18,11.88l-1.29,1.25.5,1.73.24.83,1.42,5.05.29,1.02.31,1.09.96.61,19.23,12.26,1.23.78,1.37-.48,11.22-3.91,2.75-.96-.88-2.78-8.41-26.61-.5-1.57-1.6-.42c-.14-.04-3.49-.91-6.97-.91h0Z"/><path class="cls-8" d="M125.91,232.55l-20.7-4.33,27.23-22.72,11.87-8.7,12.76,3.32-1.87,1.85c-.11.11-11.43,11.37-15.05,20.36-4.07,10.1-13.64,10.22-14.05,10.22h-.18Z"/><path class="cls-6" d="M144.62,198.43l9.52,2.48s-11.61,11.48-15.39,20.87c-3.69,9.17-12.26,9.28-12.66,9.28h-.01l-17.52-3.67,24.85-20.74,11.22-8.22M143.99,195.17l-1.15.84-11.22,8.22-.08.06-.07.06-24.85,20.74-4.76,3.97,6.06,1.27,17.52,3.67.28.06h.29s.02,0,.02,0h.04c4.07,0,11.89-2.35,15.44-11.16,3.5-8.7,14.61-19.75,14.72-19.86l3.75-3.71-5.1-1.33-9.52-2.48-1.38-.36h0Z"/><polygon class="cls-13" points="141.31 221.28 157.17 200.35 174.43 207.53 146.63 227.41 141.31 221.28"/><path class="cls-6" d="M157.67,202.18l13.7,5.69-24.5,17.52-3.63-4.18,14.43-19.04M156.68,198.52l-1.4,1.85-14.43,19.04-1.47,1.94,1.6,1.84,3.63,4.18,1.79,2.06,2.22-1.59,24.5-17.52,4.39-3.14-4.98-2.07-13.7-5.69-2.14-.89h0Z"/><path class="cls-3" d="M88.04,221.91l-9.45-28.48,2.25.17s1.21.09,2.73.09c4.23,0,5.34-.67,5.51-.81.6-.45.29-3.35-.64-5.85l-1.27-3.44,3.31,1.56c.06.03,5.9,2.74,13.62,2.74,2.36,0,4.68-.25,6.9-.75,11.05-2.49,21.28-11.81,21.38-11.9l3.55-3.26-1.07,4.7-.07.32c-.27,1.53-.88,5.56-.68,10.11.22,4.92,6.01,7.82,6.07,7.85l2.07,1.01-31.37,26.35-14.38,7.21-8.49-7.62Z"/><path class="cls-6" d="M133.42,176.35s-.03.13-.08.38h0c-.23,1.3-.92,5.56-.7,10.45.26,5.87,6.91,9.13,6.91,9.13l-29.47,24.75-13.31,6.67-7.43-6.67-5.26-15.86-3.35-10.1s1.24.1,2.84.1c2.25,0,5.2-.19,6.42-1.11,2.09-1.57-.13-7.57-.13-7.57,0,0,6.07,2.88,14.26,2.88,2.27,0,4.71-.22,7.23-.79,11.57-2.61,22.07-12.26,22.07-12.26M138.48,167.63l-7.09,6.51c-.13.12-10.09,9.15-20.7,11.54-2.11.47-4.32.72-6.57.72-7.35,0-12.93-2.57-12.98-2.59l-6.62-3.1,2.53,6.85c.54,1.47.9,3.34.84,4.23-.54.16-1.79.41-4.31.41-1.45,0-2.6-.09-2.61-.09l-4.5-.35,1.42,4.28,3.35,10.1,5.26,15.86.25.76.59.53,7.43,6.67,1.52,1.37,1.83-.92,13.31-6.67.32-.16.27-.23,29.47-24.75,3.53-2.96-4.14-2.03s-5.06-2.58-5.23-6.57c-.2-4.4.39-8.3.66-9.78v-.05c.03-.12.05-.18.05-.2l2.14-9.39h0Z"/><path class="cls-16" d="M133.42,176.35s-.03.13-.08.38h0c-3.38,4.91-10.23,14-19.09,21.14-8.45,6.82-21.97,7.59-30.17,7.33l-3.35-10.1s7.17.56,9.26-1.01c2.09-1.57-.13-7.57-.13-7.57,0,0,9.91,4.7,21.49,2.09,11.57-2.61,22.07-12.26,22.07-12.26Z"/><polygon class="cls-24" points="77.92 202.04 68.01 198.95 56.02 211.57 54.59 206.5 67.62 196.24 75.84 196.24 77.92 202.04"/><path class="cls-17" d="M102.59,188.28c-10.87,0-20.2-2.71-33.12-16.2-12.12-12.65-7.68-27.44-5.21-33.22.48-1.11.91-1.97,1.21-2.52-3.17-7.55-4.42-28.29-4.91-44.65l-.02-.67.49-.46c9.49-9,25.32-14.12,27.62-14.83l.07-.03.13-.03c.1-.03.27-.08.49-.08h2.88l-1.63,2.36c-.04.05-3.82,5.69-4.74,18.06-.66,8.73,3.2,12.71,5.28,14.2l2.63-5.56c5.25-10.53,28.7-22.68,29.7-23.19l3.65-1.88-1.58,3.79c-1.68,4.03-.44,6.85,1.6,11.53,1.04,2.38,2.22,5.07,3.26,8.5,2.02,6.62,2.69,12.22,2.91,15.49l.2-.16c2.01-1.46,3.77-3.06,5.28-4.78l1.78-2.02,1.62,5.33v.06c1.12,5.13,1,12.84.81,17.22.88-.68,1.91-1.49,3.02-2.32,9.57-7.27,11.03-7.27,11.74-7.27,1.64,0,4.52,1.5,6.84,4.38,2.25,2.79,4.6,7.63,3.04,14.85-.84,3.88-2.38,7.26-4.56,10.06-3.32,4.26-8.14,7.24-14.33,8.83-.79.2-1.56.31-2.29.31-2.44,0-4.21-1.13-5.43-2.58-2.39,7.57-9.71,17.82-18.55,23.18-3.62,2.21-7.32,3.5-10.98,3.84-3.63.33-6.37.48-8.9.48Z"/><path class="cls-6" d="M89.37,77.09c-.21.3-4.07,6.22-5.01,18.81-.98,12.91,7.43,16.43,7.43,16.43l3.33-7.04c5.08-10.18,29.03-22.5,29.03-22.5-2.85,6.85,1.68,10.76,4.81,21.04,3.13,10.27,2.94,18.09,2.94,18.09l2.54-2.03c2.16-1.57,3.96-3.24,5.47-4.96l.82,2.69c1.56,7.24.58,20.15.58,20.15,0,0,2.52-2.03,5.61-4.37,4.21-3.2,9.47-6.97,10.83-6.97,2.35,0,10.96,5.67,8.41,17.41-.85,3.92-2.37,7.01-4.28,9.45-3.79,4.87-9.09,7.16-13.52,8.3-.69.18-1.33.26-1.92.26-5.01,0-6.1-5.88-6.1-5.88.15,6.34-7.74,20.08-18.65,26.7-3.22,1.96-6.71,3.29-10.34,3.63-3.12.29-6.01.48-8.76.48-11.22,0-19.99-3.16-32.03-15.74-11.36-11.86-7.47-25.61-4.91-31.59.83-1.92,1.51-3.04,1.51-3.04-3.5-7.01-4.69-31.43-5.09-44.76,9.41-8.92,25.34-13.97,27.14-14.52.02-.01.05-.01.07-.02.03-.01.05-.02.07-.02h.02M95.14,74.07l-5.78.02h-.55l-.36.13-.2.04-.15.07c-2.68.84-18.5,6.04-28.11,15.14l-.98.92.04,1.34c.48,16.01,1.7,36.2,4.76,44.51-.27.53-.59,1.21-.94,2.01-2.59,6.06-7.24,21.56,5.5,34.86,11.63,12.15,20.9,16.66,34.2,16.66,2.57,0,5.35-.15,9.03-.49,3.89-.36,7.8-1.73,11.63-4.05,8.43-5.12,15.37-14.25,18.42-21.84,1.27.88,2.84,1.46,4.78,1.46.86,0,1.75-.12,2.66-.35,6.52-1.68,11.61-4.83,15.14-9.36,2.32-2.97,3.95-6.56,4.84-10.66,1.32-6.08.14-11.8-3.33-16.11-2.34-2.91-5.64-4.94-8.01-4.94-1.13,0-2.67,0-12.65,7.58-.17.13-.34.26-.51.39.09-4.45-.03-10.24-.93-14.41l-.03-.12-.04-.12-.82-2.69-1.57-5.15-3.55,4.05c-.94,1.07-1.98,2.09-3.11,3.05-.38-3.36-1.15-7.91-2.71-13.04-1.07-3.51-2.27-6.25-3.32-8.66-2.15-4.92-2.96-7.04-1.59-10.35l3.15-7.57-7.29,3.75c-2.54,1.31-24.98,13.08-30.34,23.83v.03s-.03.03-.03.03l-1.78,3.76c-1.74-1.87-3.75-5.41-3.28-11.64.88-11.82,4.46-17.28,4.49-17.34l3.3-4.72h0Z"/><path class="cls-17" d="M60.57,91.7c-.16-5.26-.19-8.85-.19-8.88v-1.23s28.53-5.92,28.53-5.92l.74,2.9c-1.75.54-17.38,5.48-26.55,14.17l-2.43,2.3-.1-3.35Z"/><path class="cls-6" d="M89.21,77.13c-1.8.55-17.73,5.6-27.14,14.52-.16-5.3-.19-8.85-.19-8.85l27.33-5.67M88.6,74.19l-27.33,5.67-2.41.5.02,2.46s.03,3.64.19,8.92l.2,6.69,4.86-4.61c8.92-8.46,24.24-13.3,25.95-13.83l-1.49-5.81h0Z"/><path class="cls-17" d="M130.4,121.89c0-.08.14-7.73-2.88-17.62-.99-3.26-2.13-5.87-3.14-8.17-1.61-3.68-2.96-6.77-2.56-10.33-6.51,3.64-21.6,12.67-25.36,20.2l-3.93,8.31-1.32-.55c-.38-.16-9.4-4.1-8.35-17.93.99-13.29,5.23-19.49,5.28-19.56l.34-.49,3.4-.71,37.84,1.61,11.87,38.64-.55.63c-1.66,1.89-3.58,3.63-5.72,5.18l-4.99,3.99.07-3.21Z"/><path class="cls-6" d="M92.01,76.54l36.59,1.56,11.31,36.83c-1.51,1.72-3.31,3.39-5.47,4.96l-2.54,2.03s.19-7.82-2.94-18.09c-3.13-10.28-7.66-14.19-4.81-21.04,0,0-23.95,12.32-29.03,22.5l-3.33,7.04s-8.41-3.52-7.43-16.43c.94-12.59,4.8-18.51,5.01-18.81l2.64-.55M91.76,73.53l-.37.08-2.64.55-1.16.24-.68.97c-.18.26-4.52,6.6-5.54,20.31-1.13,14.89,8.84,19.24,9.26,19.42l2.64,1.11,1.23-2.59,3.32-7.01c3.03-6.03,14.62-13.71,22.5-18.28.28,2.84,1.44,5.49,2.7,8.37.99,2.26,2.11,4.83,3.08,8.01,2.93,9.63,2.81,17.07,2.81,17.15l-.14,6.41,5.01-4,2.49-1.99c2.2-1.61,4.19-3.41,5.9-5.37l1.1-1.26-.49-1.6-11.31-36.83-.62-2.03-2.12-.09-36.59-1.56-.37-.02h0Z"/><path class="cls-1" d="M158.72,143.14h0c-.01.08-.01.11-.01.11,0,0-9.86,13.62-13.07,7.34-.08-.15-.15-.31-.22-.49,0,0,1.76-12.91,8.22-15.26,6.08-2.21,5.21,7.18,5.08,8.3Z"/><path class="cls-4" d="M158.72,143.14h0c-.01.08-.01.11-.01.11,0,0-9.86,13.62-13.07,7.34,2.54-4.11,6.63-10.15,9.76-12.03,0,0,3.03-.8,3.32,4.58Z"/><ellipse class="cls-25" cx="119.27" cy="130.93" rx="4.88" ry="11.04"/><ellipse class="cls-27" cx="82.94" cy="129.56" rx="4.41" ry="9.98"/><polygon class="cls-6" points="89.76 139.54 88.19 144.69 90.54 144.69 89.76 139.54"/><path class="cls-9" d="M55.11,129.5c-.65-1.97-6.16-19.42,1.72-23.95,4.65-2.67,7.74-3.23,9.52-3.23,1.06,0,1.66.2,1.81.26l1.34.52-.46,1.36c-.04.11-3.72,11.02-4.23,20.85l-.04.83-9.09,5.07-.57-1.72Z"/><path class="cls-6" d="M66.36,103.83c.86,0,1.27.16,1.27.16,0,0-3.78,11.09-4.3,21.26l-6.78,3.78s-6-18.13,1.04-22.17c4.46-2.56,7.29-3.03,8.78-3.03M66.36,100.83h0c-1.96,0-5.34.59-10.27,3.43-8.73,5.01-3.53,22.3-2.4,25.72l1.14,3.44,3.17-1.77,6.78-3.78,1.45-.81.09-1.66c.49-9.64,4.11-20.34,4.15-20.45l.93-2.72-2.67-1.05c-.35-.14-1.12-.36-2.36-.36h0Z"/><path class="cls-5" d="M55.3,107.43c-.27-20.36,26.16-27.06,27.28-27.34l4.49-1.1-2.99,3.53c-8.1,9.55-15.07,22.07-15.14,22.19l-.29.52-13.32,4.22-.03-2.02Z"/><path class="cls-6" d="M82.94,81.55c-8.3,9.78-15.31,22.43-15.31,22.43l-10.83,3.43c-.26-19.4,26.14-25.86,26.14-25.86M91.21,76.44l-8.98,2.2c-1.17.29-28.72,7.28-28.43,28.82l.05,4.04,3.85-1.22,10.83-3.43,1.14-.36.58-1.04c.07-.12,6.98-12.52,14.98-21.95l5.98-7.06h0Z"/><path class="cls-18" d="M73.96,103.95l.17-.21c1.38-1.7,9.91-2.8,13.52-3.2l1.11-.12v8.17l-4.97-.77c-.12,0-.25,0-.37,0-5.71,0-8.55,3.83-8.67,3.99l-2.37,3.27,1.59-11.12Z"/><path class="cls-6" d="M87.76,101.53v5.88l-3.88-.6c-.16,0-.31,0-.46,0-6.34,0-9.49,4.41-9.49,4.41l.98-6.85c1.27-1.57,12.85-2.84,12.85-2.84M89.76,99.3l-2.22.24c-12.39,1.36-13.74,3.02-14.18,3.56l-.35.43-.08.55-.98,6.85-1.16,8.12,4.77-6.68c.1-.13,2.69-3.57,7.86-3.57.09,0,.19,0,.28,0l3.76.58,2.31.36v-10.45h0Z"/><path class="cls-18" d="M131.8,113.88c-.11-.05-10.82-5.16-19.67-5.16-.9,0-1.76.05-2.56.16l-1.78.24.74-1.64c.09-.21,2.35-5.04,9.53-5.04.41,0,.84.02,1.29.05,7.82.61,16.12,7.67,16.47,7.97l1.05.9-4.58,2.75-.49-.23Z"/><path class="cls-6" d="M118.05,103.44c.39,0,.79.02,1.21.05,7.58.59,15.9,7.73,15.9,7.73l-2.93,1.76s-10.91-5.26-20.1-5.26c-.92,0-1.82.05-2.69.17,0,0,2.01-4.45,8.62-4.45M118.05,101.44c-7.81,0-10.34,5.4-10.44,5.63l-1.48,3.28,3.56-.47c.75-.1,1.57-.15,2.43-.15,8.61,0,19.13,5.01,19.23,5.06l.97.47.92-.55,2.93-1.76,2.38-1.43-2.1-1.81c-.36-.31-8.91-7.57-17.05-8.21-.46-.04-.92-.05-1.37-.05h0Z"/><path class="cls-18" d="M162.99,154.13l.24-.31c.87-1.11.93-3.17,1-5.35.05-1.62.1-3.29.46-4.95.92-4.22.38-7.91-1.6-10.97-1.99-3.07-4.84-4.49-5.65-4.66-.22-.05-.49-.07-.78-.07-3.09,0-8.42,2.52-12.21,7.19l-3.56,4.39,1.63-9.93-.68-14.51c-.26.32-.53.64-.81.96-1.66,1.89-3.58,3.63-5.72,5.18l-4.99,3.99.07-3.21c0-.08.14-7.73-2.88-17.62-.99-3.26-2.13-5.87-3.14-8.17-1.61-3.68-2.96-6.77-2.56-10.33-6.51,3.64-21.6,12.67-25.36,20.2l-3.93,8.31-1.32-.55c-.38-.16-9.4-4.1-8.35-17.93.57-7.69,2.23-13,3.54-16.13-5.46,1.96-16.28,6.42-23.3,13.08-3.61,3.42-5.71,6.97-6.25,10.55l-.15.97-.94.26c-.11.03-11.05,3.04-14.83,6.57-.24.24-.43.43-.56.6l-1.76,2.29-.86-2.76c-.19-.61-4.53-15.14,6.41-29.12,1.24-1.56,2.57-3.02,3.97-4.35,1.93-1.82,4.08-3.52,6.4-5.07l.1-.07.11-.05c.19-.08,4.72-2.1,10.56-3.77.42-.12.84-.24,1.25-.35-4.6-2.74-10.96-9.31-11.27-24.73-.01-.71-.01-1.44,0-2.18v-.95s.87-.4.87-.4c.15-.07,3.62-1.64,9.1-1.64,5.84,0,14.65,1.81,24.14,10.21-.84-6.5-1.02-18.79,6.23-31.34l.47-.82.94.07s.75.06,1.96.29c5.93,1.09,20.93,5.47,31.7,22.42,3.37,5.3,6.03,11.42,7.93,18.23,2.13-2.7,5.67-9.76,4.78-26.27-.02-.37-.05-.73-.07-1.11v-.15c0-.09-.01-.17-.02-.26l-.13-2.41,2.09.68s.22.07.62.24c2.74,1.1,12.16,5.89,17.49,20.79,2,5.62,3.19,12.07,3.53,19.19v.19s-2.68,12.68-2.68,12.68c6.45-3.02,14.22-7.39,15.18-9.72l1.77-4.31,1.07,4.54c.16.66,3.77,16.33-1.57,29.41-.15.31-2.35,4.82-6.03,8.93,4.1-.7,9.99-1.6,14.83-1.99l2.15-.17-.59,2.08c-.19.67-4.75,16.24-18.63,28.09l-.02.56,12.43-.69-1.18,2.32c-.28.55-7.06,13.63-19,17.55l-2.31.76.66-4.4Z"/><path class="cls-6" d="M96.94,18.16s.65.05,1.79.27c5.11.94,20.1,5.04,30.72,21.75,3.4,5.35,6.35,11.99,8.38,20.24,0,0,8.42-4.37,7.09-29.17-.02-.39-.05-.78-.08-1.18,0-.19-.02-.37-.03-.56,0,0,.18.06.51.2,2.26.91,11.49,5.44,16.66,19.91,1.78,4.99,3.08,11.15,3.44,18.76l-3.26,15.39s16.83-7.31,18.65-11.74c0,0,3.72,15.71-1.5,28.5,0,0-3.65,7.56-9.39,11.87,0,0,11.48-2.22,19.7-2.87,0,0-4.57,16.04-18.66,27.78l-.13,2.87,11.48-.64s-6.64,13.03-18.13,16.81l.24-1.6c1.91-2.44.89-6.99,1.74-10.91,2.55-11.74-6.11-16.93-8.41-17.41-.33-.07-.69-.1-1.08-.1-3.46,0-9.25,2.65-13.38,7.74l.74-4.51-.78-16.64s3.71-2.54,5.28-12.52l-1.37-7.63s1.8,11.84-7.25,22.16c-1.51,1.72-3.31,3.39-5.47,4.96l-2.54,2.03s.19-7.82-2.94-18.09c-3.13-10.28-7.66-14.19-4.81-21.04,0,0-23.95,12.32-29.03,22.5l-3.33,7.04s-8.41-3.52-7.43-16.43c.94-12.59,4.8-18.51,5.01-18.81h0s-.01-.01-.02,0c-.02,0-.04.01-.07.02-.02.01-.05.01-.07.02-1.8.55-17.73,5.6-27.14,14.52-3.47,3.29-6.05,7.11-6.7,11.42,0,0-11.36,3.09-15.46,6.92-.27.26-.52.52-.72.78,0,0-4.42-14.23,6.16-27.75,1.11-1.4,2.37-2.81,3.82-4.19,1.78-1.68,3.83-3.33,6.2-4.91,0,0,4.56-2.04,10.36-3.7,1.83-.52,3.78-1.01,5.75-1.39,0,0-14.23-2.39-14.68-25.16,0-.69,0-1.4,0-2.13,0,0,3.25-1.5,8.48-1.5,6.14,0,15,2.07,24.5,11.08.66.61,1.32,1.27,1.98,1.96,0,0-4.99-17.31,5.18-34.92M95.28,15.03l-.94,1.64c-6.26,10.85-7.14,21.52-6.74,28.64-8.75-6.73-16.8-8.26-22.32-8.26s-9.34,1.59-9.73,1.77l-1.72.79-.03,1.89c-.01.76-.01,1.5,0,2.21.26,13.37,4.97,20.43,9.39,24.13-5.09,1.58-8.87,3.26-9.05,3.33l-.23.1-.21.14c-2.39,1.6-4.61,3.35-6.59,5.22-1.46,1.39-2.84,2.9-4.11,4.51-11.43,14.6-6.87,29.86-6.67,30.5l1.72,5.53,3.53-4.59c.08-.1.22-.25.42-.45,2.88-2.69,11.2-5.38,14.17-6.19l1.89-.51.29-1.93c.49-3.25,2.44-6.51,5.8-9.69,5.7-5.41,14.01-9.34,19.72-11.6-1.04,3.25-2.06,7.7-2.49,13.45-1.13,14.89,8.84,19.24,9.26,19.42l2.64,1.11,1.23-2.59,3.32-7.01c3.03-6.03,14.62-13.71,22.5-18.28.28,2.84,1.44,5.49,2.7,8.37.99,2.26,2.11,4.83,3.08,8.01,2.95,9.7,2.81,17.07,2.81,17.14l-.16,6.44,5.03-4.02,2.49-1.99c1.53-1.12,2.95-2.33,4.26-3.62l.5,10.73-.69,4.2-1.83,11.16,7.12-8.78c3.71-4.58,8.69-6.63,11.04-6.63.23,0,.38.02.47.04.08.02,8.38,3.33,6.09,13.84-.39,1.79-.44,3.61-.49,5.22-.05,1.76-.11,3.75-.68,4.47l-.49.62-.12.78-.24,1.6-.73,4.82,4.63-1.52c12.52-4.12,19.57-17.72,19.87-18.3l2.37-4.65-5.21.29-6.22.35c12.26-11.77,16.4-25.9,16.58-26.54l1.18-4.15-4.31.34c-3.52.28-7.56.83-11.1,1.38,2.31-3.17,3.63-5.89,3.73-6.08l.04-.08.04-.09c5.52-13.52,1.8-29.65,1.64-30.32l-2.15-9.08-3.54,8.63c-.65,1.41-5.63,4.59-11.69,7.62l2.01-9.51.08-.38-.02-.39c-.34-7.27-1.56-13.87-3.61-19.63-5.52-15.44-15.4-20.48-18.34-21.67-.46-.19-.71-.27-.71-.27l-4.14-1.33.2,4.34.02.25c0,.05,0,.1,0,.16v.09s0,.13,0,.13v.09c.03.35.06.68.08,1.02.65,12.11-1.11,18.89-2.82,22.54-1.84-5.66-4.22-10.81-7.12-15.37-11.09-17.45-26.57-21.96-32.71-23.09-1.25-.24-2.02-.3-2.1-.31l-1.88-.15h0Z"/><path class="cls-26" d="M141.58,162.19l-3.26,8.74s9.65-2.48,14.41-7.24l.33-1.24s-7.24,2.15-11.48-.26Z"/><path class="cls-23" d="M124.15,74.47s-19.84,10.15-26.23,20.01-8.55,14.95-8.55,14.95c0,0,23.68-24.39,36.07-29.35l-1.29-5.61Z"/><path class="cls-23" d="M126.61,82.82s8.48,17.48,9.91,28.3l-1.57,7.17s-2.22-8.61-4.96-15.26-6.39-15.26-3.39-20.22Z"/><path class="cls-23" d="M99.35,21.32s-7.96,11.74-2.48,38.61c0,0-9.52-25.43,2.48-38.61Z"/><path class="cls-14" d="M95.3,61.62c-.5-.38-16.42-12.57-21.6-15.44-3.64-2.01-12.06-2.44-16.9-2.51,0-.69,0-1.4,0-2.13,0,0,15.4-7.09,32.98,9.58,2.75,4.9,5.39,10.23,5.52,10.5Z"/><path class="cls-23" d="M79.26,67.76s-14.3-5.22-17.39-20.74c0,0,.11-2.61,5.75-1.57s26.51,16.3,26.51,16.3c0,0-19.4-21-33.25-17.74,0,0-3.23,3.7.99,11.7s9.04,13.22,17.39,12.04Z"/><path class="cls-14" d="M134.64,62.34l-1.44-4.43c-11.61-30.92-34.69-38.48-34.69-38.48l.22-1c5.11.94,20.1,5.04,30.72,21.75,4.84,13.22,5.19,22.16,5.19,22.16Z"/><path class="cls-14" d="M162.16,59.21c-2.63-10.19-14.41-24.59-17.24-27.96-.41-.47-.63-.73-.63-.73,0,0,.2-.17.55-.45.13-.1.29-.23.48-.36,2.26.91,11.49,5.44,16.66,19.91.29,5.39.18,9.59.18,9.59Z"/><path class="cls-14" d="M69.87,71.24c-12.27.69-22.66,11.58-22.66,11.58.12-.79.89-2.28,1.96-3.99,1.78-1.68,3.83-3.33,6.2-4.91,0,0,4.56-2.04,10.36-3.7,2.3.52,4.14,1.02,4.14,1.02Z"/><path class="cls-22" d="M39.94,108.48l-.03,1.51c-.27.26-.52.52-.72.78,0,0-4.42-14.23,6.16-27.75l1.86-.2s-8.54,13.73-7.27,25.66Z"/><path class="cls-19" d="M124.15,148.71s-.06,1.14-.34,2.94c-.48,3.02-1.57,7.87-4.02,12.22-1.54,2.75-3.62,5.3-6.43,7.06-9.92,6.22-20.35.61-20.35.61,0,0-2.16-1.29-5.25-4.9h-.01c-2.02-2.35-4.45-5.7-6.94-10.32-.33-.6-.65-1.22-.98-1.87,0,0,2.46.6,6.38,1.09,7.87.99,21.62,1.57,32.99-3.91,1.71-.83,3.37-1.8,4.95-2.92Z"/><path class="cls-10" d="M119.79,163.87c-1.54,2.75-3.62,5.3-6.43,7.06-9.92,6.22-20.35.61-20.35.61,0,0-2.16-1.29-5.25-4.9,3.87.18,14.08.47,19.32-1.1,6.54-1.96,12.19-5.22,12.19-5.22,0,0,.33,1.5.52,3.55Z"/><path class="cls-7" d="M120.4,156.35c-3.41,4.72-15,7.49-23.22,8.15-8.21.65-13.3-7.18-13.3-7.18l2.33-1.78c7.87.99,21.62,1.57,32.99-3.91l2.37.61s2.24-.61-1.17,4.11Z"/><path class="cls-12" d="M124.15,148.71s-.06,1.14-.34,2.94c-5.73,4.29-9.42,4.7-9.42,4.7-17.36,2.61-28.95.94-33.58-.03-.33-.6-.65-1.22-.98-1.87,0,0,2.46.6,6.38,1.09,7.87.99,21.62,1.57,32.99-3.91,1.71-.83,3.37-1.8,4.95-2.92Z"/><path class="cls-2" d="M121.69,182.67c-3.22,1.96-6.71,3.29-10.34,3.63-15.88,1.46-25.8.39-40.79-15.26-11.36-11.86-7.47-25.61-4.91-31.59-1.24,7.59-2.74,27.24,12.88,36.07,19.56,11.06,35.42,7.63,35.42,7.63l7.74-.48Z"/><path class="cls-28" d="M210.34,131.38c0,53.21-44.32,96.35-99,96.35S12.34,184.59,12.34,131.38"/></g></g></svg>